# xmcd
#
# Track frame offsets:
#	150
#	9525
#	21325
#	27627
#	36332
#	49422
#	63027
#	75177
#	85790
#	97175
#	109855
#	125790
#	135250
#	145965
#	156737
#	169355
#	183092
#	193105
#	205980
#	216680
#	229155
#	239222
#	251692
#	263700
#	278422
#	290180
#	297115
#
# Disc length: 4091 seconds
#
# Revision: 6
# Processed by: cddbd v1.5.2PL0 Copyright (c) Steve Scherf et al.
# Submitted via: EZCDAudioConverter 7.2.1.1
#
DISCID=a60ff91b
DTITLE=Merle Haggard - Untamed Hawk;Disc 4 of 5
DYEAR=1995
DGENRE=Country
TTITLE0=Where Does The Good Times Go (Recorded 1967 - Released 1968  ST 2848)
TTITLE1=Good Times (Recorded 1967 - Released 1968  ST 2848)
TTITLE2=News Break (Recorded 1967 - Released 1995)
TTITLE3=My Past Is Present (Recorded 1967 - Released 1968  ST 2848)
TTITLE4=Mom And Dad's Waltz (Recorded 1967 - Released 1968  ST 2848)
TTITLE5=My Ramona (Recorded 1967 - Released 1968  ST 2912)
TTITLE6=Because You Can't Be Mine (Recorded 1967 - Released 1968  ST 2912)
TTITLE7=The Train Never Stops (1968  ST 2912)
TTITLE8=You Still Have A Place In My Heart (1968  ST 2912)
TTITLE9=Money Tree (1968  ST 2912)
TTITLE10=A Picture From Two Sides Of Life (Recorded 1968 - Released 1995)
TTITLE11=The Legend Of Bonnie And Clyde (1968  ST 2912)
TTITLE12=I Started Loving You Again (1968  ST 2912)
TTITLE13=Love Has A Mind Of Its Own (1968  ST 2912)
TTITLE14=Fool's Castle (1968  ST 2912)
TTITLE15=Is This The Beginning Of The End (1968  ST 2912)
TTITLE16=The Sunny Side Of My Life (1968  ST 2972)
TTITLE17=Run 'Em Off (1968  ST 2972)
TTITLE18=I'll Always Know (1968  ST 2972)
TTITLE19=You'll Never Love Me Now (1968  ST 2972)
TTITLE20=Mama Tried (1968  ST 2972)
TTITLE21=In The Good Old Days (When Times Were Bad) (1968  ST 2972)
TTITLE22=Little Ole Wine Drinker Me (1968  ST 2972)
TTITLE23=Teach Me To Forget (1968  ST 2972)
TTITLE24=Lookin' For My Mind (Takes 1-2) (Recorded 1968 - Released 1995)
TTITLE25=Lookin' For My Mind (Takes 3-5) (Recorded 1968 - Released 1995)
TTITLE26=Lookin' For My Mind (Take 6) (Recorded 1968 - Released 1995)
EXTD=
EXTT0=
EXTT1=
EXTT2=
EXTT3=
EXTT4=
EXTT5=
EXTT6=
EXTT7=
EXTT8=
EXTT9=
EXTT10=
EXTT11=
EXTT12=
EXTT13=
EXTT14=
EXTT15=
EXTT16=
EXTT17=
EXTT18=
EXTT19=
EXTT20=
EXTT21=
EXTT22=
EXTT23=
EXTT24=
EXTT25=
EXTT26=
PLAYORDER=
